# xmcd
#
# Track frame offsets:
#	150
#	12307
#	33703
#	55961
#	76019
#	93824
#	115727
#	136356
#	166821
#	184289
#	214222
#	249060
#	267275
#	267685
#	279454
#
# Disc length: 3966 seconds
#
# Revision: 0
# Processed by: cddbd v1.5.2PL0 Copyright (c) Steve Scherf et al.
# Submitted via: dBpowerAMP V4.0
#
DISCID=ce0f7c0f
DTITLE=Patty Labelle - The Best
DYEAR=1900
DGENRE=R&B
TTITLE0=Track01 Over The Rainbow
TTITLE1=Track02 If Only You Knew
TTITLE2=Track03 Love You Need You Want You
TTITLE3=Track04 Kiss Away The Pain
TTITLE4=Track05 If Only You Ask Me
TTITLE5=Track06 Somebody Loves You Baby
TTITLE6=Track07 You Are My Friend
TTITLE7=Track08 Little Girls
TTITLE8=Track09 I Don't Go Shopping
TTITLE9=Track10 Come Intop My Life
TTITLE10=Track11 Ain't It a Shame
TTITLE11=Track12 Come What May
TTITLE12=Track13 On My Own
TTITLE13=Track14 When You've Been Blessed
TTITLE14=Track15 Bonus
EXTD=Christa Williams
EXTT0=
EXTT1=
EXTT2=
EXTT3=
EXTT4=
EXTT5=
EXTT6=
EXTT7=
EXTT8=
EXTT9=
EXTT10=
EXTT11=
EXTT12=
EXTT13=
EXTT14=
PLAYORDER=
